<svg xmlns="http://www.w3.org/2000/svg" width="30.201" height="43.257" viewBox="0 0 30.201 43.257">
  <g id="Group_5" data-name="Group 5" transform="translate(-128 131.128)">
    <path id="Icon_material-location-on" data-name="Icon material-location-on" d="M13.777,3A6.5,6.5,0,0,0,7.5,9.72c0,5.04,6.277,12.48,6.277,12.48s6.277-7.44,6.277-12.48A6.5,6.5,0,0,0,13.777,3Zm0,9.12a2.326,2.326,0,0,1-2.242-2.4,2.326,2.326,0,0,1,2.242-2.4,2.326,2.326,0,0,1,2.242,2.4A2.326,2.326,0,0,1,13.777,12.12Z" transform="translate(129.324 -134.128)" fill="#4ba1a9"/>
    <path id="Icon_awesome-box-open" data-name="Icon awesome-box-open" d="M20.086,12.377a2.31,2.31,0,0,1-1.954-1.058L15.1,6.5l-3.029,4.82a2.317,2.317,0,0,1-1.958,1.063,2.258,2.258,0,0,1-.628-.086L3.019,10.523v8.048a1.455,1.455,0,0,0,1.142,1.4l10.2,2.446a3.2,3.2,0,0,0,1.463,0l10.211-2.446a1.463,1.463,0,0,0,1.142-1.4V10.523l-6.465,1.768A2.258,2.258,0,0,1,20.086,12.377ZM30.118,7.3l-2.43-4.648a.779.779,0,0,0-.788-.4L15.1,3.7l4.327,6.877a.791.791,0,0,0,.873.33l9.338-2.555A.737.737,0,0,0,30.118,7.3ZM2.509,2.656.079,7.3a.729.729,0,0,0,.477,1.04L9.894,10.9a.791.791,0,0,0,.873-.33L15.1,3.7,3.293,2.254a.779.779,0,0,0-.783.4Z" transform="translate(128.003 -110.376)" fill="#4ba1a9"/>
  </g>
</svg>
