<svg width="29" height="40" viewBox="0 0 29 40" fill="none" xmlns="http://www.w3.org/2000/svg">
<path d="M0.957687 26.1235L4.8984 0.767809C4.92733 0.580032 5.01457 0.406107 5.14779 0.270646C5.28101 0.135184 5.45345 0.0450465 5.64072 0.0129878C5.82799 -0.0190709 6.02059 0.00857272 6.19129 0.0920073C6.36198 0.175442 6.50211 0.310442 6.59185 0.477903L10.8305 8.43331L0.957687 26.1235ZM28.9506 32.2755L25.1978 8.94114C25.1695 8.77783 25.0971 8.62537 24.9884 8.5003C24.8796 8.37523 24.7387 8.28232 24.5809 8.23164C24.4231 8.18096 24.2544 8.17446 24.0932 8.21283C23.932 8.2512 23.7843 8.33298 23.6663 8.4493L0 32.2755L13.0957 39.6551C13.9175 40.115 14.9191 40.115 15.7409 39.6551L28.9506 32.2755ZM18.308 11.9122L15.275 6.10807C15.1983 5.96236 15.0833 5.84037 14.9424 5.75527C14.8014 5.67017 14.6399 5.62519 14.4753 5.62519C14.3106 5.62519 14.1491 5.67017 14.0082 5.75527C13.8672 5.84037 13.7522 5.96236 13.6755 6.10807L0.357883 29.9743L18.308 11.9122Z" fill="#FF9900"/>
</svg>
